<?xml version="1.0" encoding="UTF-8" standalone="no"?>
<!-- Created with Inkscape (http://www.inkscape.org/) -->

<svg
   xmlns:dc="http://purl.org/dc/elements/1.1/"
   xmlns:cc="http://creativecommons.org/ns#"
   xmlns:rdf="http://www.w3.org/1999/02/22-rdf-syntax-ns#"
   xmlns:svg="http://www.w3.org/2000/svg"
   xmlns="http://www.w3.org/2000/svg"
   xmlns:sodipodi="http://sodipodi.sourceforge.net/DTD/sodipodi-0.dtd"
   xmlns:inkscape="http://www.inkscape.org/namespaces/inkscape"
   width="141.73228"
   height="141.73228"
   id="svg2"
   version="1.1"
   inkscape:version="0.48.0 r9654"
   sodipodi:docname="Nuovo documento 1">
  <defs
     id="defs4" />
  <sodipodi:namedview
     id="base"
     pagecolor="#ffffff"
     bordercolor="#666666"
     borderopacity="1.0"
     inkscape:pageopacity="0.0"
     inkscape:pageshadow="2"
     inkscape:zoom="2.9483843"
     inkscape:cx="81.471069"
     inkscape:cy="63.059318"
     inkscape:document-units="px"
     inkscape:current-layer="layer1"
     showgrid="false"
     units="cm"
     inkscape:window-width="1366"
     inkscape:window-height="745"
     inkscape:window-x="-8"
     inkscape:window-y="-8"
     inkscape:window-maximized="1" />
  <metadata
     id="metadata7">
    <rdf:RDF>
      <cc:Work
         rdf:about="">
        <dc:format>image/svg+xml</dc:format>
        <dc:type
           rdf:resource="http://purl.org/dc/dcmitype/StillImage" />
        <dc:title></dc:title>
      </cc:Work>
    </rdf:RDF>
  </metadata>
  <g
     inkscape:label="Livello 1"
     inkscape:groupmode="layer"
     id="layer1"
     transform="translate(0,-910.62859)">
    <g
       id="layer1-6"
       inkscape:label="Livello 1"
       transform="matrix(-0.21636789,0,0,0.2344923,141.47049,848.09928)">
      <path
         inkscape:connector-curvature="0"
         id="path3347"
         d="m 286.17685,771.08255 c -7.6356,-8.1783 -1.4172,-18.8884 10.9605,-18.8777 2.0466,0 2.5782,-0.4311 2.5782,-2.0996 0,-5.5128 -7.0107,-7.7437 -9.2045,-2.929 -0.7961,1.7473 -1.7888,2.3438 -3.9004,2.3438 -1.9684,0 -2.8326,-0.4564 -2.8326,-1.496 0,-2.2379 2.8649,-6.6538 5.0806,-7.8309 4.3876,-2.3311 11.3008,-1.2235 14.6561,2.3481 2.032,2.1629 2.1723,3.125 2.3713,16.2655 l 0.2115,13.9667 -2.3189,0.4433 c -1.5571,0.2976 -2.6613,-0.1047 -3.3607,-1.2247 -0.9561,-1.531 -1.2244,-1.5483 -3.2671,-0.2098 -3.5687,2.3383 -8.4267,2.0286 -10.974,-0.6997 z m 11.7786,-5.2603 c 1.1597,-1.0495 1.7601,-2.8646 1.7601,-5.321 l 0,-3.7281 -3.879,0.5203 c -4.5879,0.6153 -6.6679,2.404 -6.6679,5.7337 0,5.0682 4.6431,6.5451 8.7868,2.7951 z m 31.9944,7.3946 -3.0468,-0.3781 0,-23.3781 0,-23.3781 3.2812,0 3.2813,0 0,23.9062 c 0,13.1485 -0.1055,23.8388 -0.2344,23.7562 -0.1289,-0.082 -1.6055,-0.3201 -3.2813,-0.5281 z m 16.3788,-0.4558 c -5.7529,-1.5267 -8.0881,-8.6275 -4.8785,-14.8342 1.3946,-2.697 6.2677,-6.0295 7.3029,-4.9943 0.2888,0.2889 1.0806,0.1796 1.7595,-0.2428 0.6788,-0.4225 2.2127,-0.6416 3.4086,-0.4871 1.9315,0.2497 2.141,-0.056 1.875,-2.735 -0.1842,-1.8554 -1.1078,-3.5498 -2.4,-4.4029 -1.9586,-1.293 -2.285,-1.1893 -4.8293,1.5343 -2.9025,3.1072 -7.6013,4.0708 -7.6013,1.5588 0,-6.4313 8.8683,-11.2998 15.5204,-8.5204 5.1474,2.1507 5.7962,4.1663 6.2747,19.492 l 0.4318,13.8281 -2.7054,0 c -1.5328,0 -2.9379,-0.6059 -3.2418,-1.3979 -0.453,-1.1805 -0.9056,-1.1076 -2.9095,0.4687 -2.618,2.0593 -2.9079,2.0858 -8.0071,0.7327 z m 9.1779,-7.3144 c 0.9467,-1.046 1.414,-2.8817 1.228,-4.8233 -0.2839,-2.9631 -0.4916,-3.1288 -3.7989,-3.0291 -1.9242,0.058 -4.139,0.6369 -4.9218,1.2866 -1.9022,1.5787 -1.8532,7.1805 0.072,8.258 2.0505,1.1475 5.5786,0.343 7.4204,-1.6922 z m 21.1328,7.534 c -2.4425,-0.3717 -3.7026,-1.2938 -5.1563,-3.7731 -1.6922,-2.8863 -1.9238,-4.8613 -1.9238,-16.4063 l 0,-13.125 2.9558,-0.2869 2.9558,-0.287 0.3254,13.254 c 0.2907,11.8373 0.5207,13.3967 2.1513,14.5883 1.8076,1.3208 4.786,1.0064 6.6117,-0.6981 0.5156,-0.4814 1.1484,-6.6566 1.4063,-13.7227 l 0.4687,-12.8476 2.8125,0.01 2.8125,0.01 0,16.4002 0,16.4001 -2.161,0.3064 c -1.1885,0.1685 -2.6962,-0.1379 -3.3504,-0.6808 -0.8394,-0.6966 -1.5097,-0.6669 -2.2775,0.1009 -1.2631,1.263 -3.1301,1.4503 -7.631,0.7654 z m -119.34478,-8.2262 c -1.40544,-4.5118 -3.86919,-12.4219 -5.47501,-17.5782 -1.6058,-5.1562 -3.05542,-10.0078 -3.22138,-10.7812 -0.16595,-0.7735 -0.37265,-1.4063 -0.45934,-1.4063 -0.0867,0 -0.34757,-1.3206 -0.57975,-2.9347 -0.38541,-2.6794 -0.17049,-2.9716 2.47092,-3.3593 3.11853,-0.4577 3.99088,0.3066 4.48848,3.9327 0.17558,1.2794 0.60813,2.545 0.96124,2.8125 0.35311,0.2675 0.76479,1.3301 0.91485,2.3613 0.15006,1.0313 1.14581,4.8282 2.2128,8.4375 1.06698,3.6094 2.05188,7.4063 2.18867,8.4375 1.058,7.9762 1.6005,7.5293 5.2631,-4.3356 1.9698,-6.381 4.05,-13.8167 4.6228,-16.5237 l 1.0415,-4.9219 3.6835,0 c 2.026,0 3.6836,0.1579 3.6836,0.3509 0,0.1929 -0.6238,2.1187 -1.3861,4.2793 -0.7623,2.1607 -1.3282,4.2176 -1.2574,4.571 0.071,0.3534 -0.1188,1.2753 -0.4212,2.0488 -1.4069,3.5982 -6.5235,19.7104 -7.5916,23.9062 -1.781,6.9956 -3.0742,8.9063 -6.0283,8.9063 -2.39359,0 -2.7184,-0.5213 -5.11138,-8.2031 z m 55.54598,-15.175 0,-23.4969 3.2976,0 3.2976,0 -0.2507,23.2031 -0.2508,23.2031 -3.0469,0.2938 -3.0468,0.2938 0,-23.4969 z m 86.7398,22.2062 c -0.2139,-0.6445 -0.3061,-8.1328 -0.205,-16.6406 l 0.1839,-15.4688 3.0469,-0.2937 c 1.7521,-0.169 3.0469,0.14 3.0469,0.7272 0,0.6448 1.0141,0.4965 2.7531,-0.4028 3.7966,-1.9633 5.8582,-0.9907 5.5005,2.5948 -0.2185,2.1892 -0.7735,2.8896 -2.3806,3.0039 -2.6187,0.1862 -5.978,3.1368 -5.7948,5.0897 0.076,0.8077 0.089,6.2145 0.03,12.0153 l -0.108,10.5469 -2.8419,0 c -1.563,0 -3.0169,-0.5274 -3.2307,-1.1719 z m 19.0055,-15.2203 c -0.2754,-16.435 -0.2677,-16.5069 1.8307,-17.0324 4.8472,-1.2137 4.9887,-0.7104 4.7118,16.7631 l -0.2566,16.1927 -3.0046,0.2907 -3.0046,0.2906 -0.2767,-16.5047 z m -0.024,-23.2172 c -1.2178,-1.876 -1.1951,-2.2909 0.2052,-3.75 1.9303,-2.0113 5.5016,-2.1443 6.2353,-0.2323 0.2973,0.7746 0.276,2.4621 -0.047,3.75 -0.7644,3.0457 -4.4791,3.1807 -6.3932,0.2323 z m -222.20563,-17.3755 -10.07812,-0.2661 0,-3.7182 c 0,-3.0933 0.31517,-3.7183 1.875,-3.7183 2.45357,0 2.32719,-1.2836 -0.73844,-7.5 l -2.54281,-5.1563 -4.96586,-0.2849 -4.96586,-0.2849 0.27836,6.3396 c 0.25869,5.8916 0.44399,6.3781 2.62211,6.8845 1.90501,0.4428 2.39822,1.196 2.63472,4.0234 l 0.29096,3.4786 -10.83783,0 -10.83785,0 0,-3.1896 c 0,-2.701 0.43073,-3.3397 2.8125,-4.1699 l 2.8125,-0.9805 0,-18.7988 0,-18.7987 -2.34375,0 c -2.10938,0 -2.34375,-0.375 -2.34375,-3.75 l 0,-3.75 14.86011,0 c 22.90517,0 25.92344,1.7584 26.551,15.4687 0.19454,4.2503 -0.98316,7.5184 -3.76463,10.4471 -1.04971,1.1053 -1.63043,2.2877 -1.29047,2.6277 0.33994,0.3399 -0.10734,0.3397 -0.99396,-5e-4 -2.18895,-0.84 -2.09274,-0.506 1.6392,5.6916 1.7882,2.9695 3.71087,6.7918 4.27263,8.494 0.77294,2.342 1.63531,3.1656 3.54561,3.3862 2.11125,0.2437 2.57378,0.8095 2.82692,3.4575 0.16647,1.7414 -0.0444,3.4289 -0.46875,3.75 -0.42427,0.3212 -5.30657,0.4642 -10.84954,0.3178 z m -11.28352,-29.8209 c 4.84338,-0.9687 7.67658,-8.834 4.66547,-12.952 -1.20427,-1.6469 -7.03525,-3.2457 -12.13195,-3.3264 l -2.57812,-0.041 0,8.4375 0,8.4375 3.63281,0 c 1.99805,0 4.88336,-0.2501 6.41179,-0.5558 z m 38.29004,28.6368 c -5.19509,-2.5918 -7.69282,-5.1898 -10.49384,-10.9149 -2.16539,-4.4259 -2.41977,-6.0191 -2.32842,-14.583 0.14288,-13.3954 1.92232,-17.6784 9.8326,-23.6667 4.66766,-3.5336 5.10491,-3.6407 15.12377,-3.7056 7.66909,-0.05 8.79905,0.1805 12.40742,2.5262 7.54039,4.9018 11.65273,17.9702 9.67653,30.7505 -1.56574,10.1259 -5.5986,15.9528 -13.64645,19.7172 -5.19809,2.4315 -15.57517,2.3691 -20.57161,-0.1237 z m 15.78833,-7.4196 c 1.30351,-0.4956 3.53636,-2.7104 4.96186,-4.9219 2.36124,-3.663 2.5937,-4.8131 2.61287,-12.927 0.0164,-6.9292 -0.37851,-9.7113 -1.77891,-12.5326 -4.79948,-9.6692 -17.28962,-9.2969 -21.77468,0.6492 -1.75287,3.8872 -2.27811,14.5013 -1.01196,20.4502 0.74989,3.5233 4.42935,7.9604 7.7116,9.2994 2.59868,1.0602 6.46422,1.053 9.27922,-0.017 z m 86.86488,8.3038 c -1.2614,-0.5038 -4.0806,-2.3804 -6.2649,-4.1703 -5.6478,-4.6279 -8.046,-11.335 -8.0787,-22.5933 -0.023,-7.8932 0.2291,-9.0908 3.1498,-14.9689 2.5809,-5.1943 4.0374,-6.9212 7.787,-9.2329 4.248,-2.619 5.2845,-2.8436 13.125,-2.8436 8.7685,0 10.5186,0.2658 12.3441,1.875 5.5427,4.8858 9.3166,8.9063 8.3601,8.9063 -0.2963,0 -0.059,0.8962 0.5271,1.9915 0.5862,1.0953 1.2066,3.0992 1.3786,4.4531 0.4655,3.6633 0.4988,16.1795 0.05,18.8679 -0.5898,3.5349 -3.068,8.8979 -4.761,10.3029 -0.8267,0.6861 -1.2881,1.8076 -1.0254,2.4923 0.2627,0.6846 0.1765,1.1839 -0.1917,1.1095 -0.3681,-0.074 -3.1072,0.9853 -6.0867,2.355 -4.2316,1.9452 -6.7967,2.4773 -11.7188,2.4309 -3.4657,-0.033 -7.3334,-0.4716 -8.5948,-0.9754 z m 15.7092,-9.3017 c 3.7876,-2.3093 5.708,-6.6414 6.4456,-14.5404 1.2386,-13.2632 -4.0675,-21.9981 -13.3626,-21.9981 -4.5555,0 -10.0557,5.3185 -11.6693,11.284 -2.1455,7.9314 -0.039,19.7345 4.2962,24.0694 3.3847,3.3847 9.8085,3.9174 14.2901,1.1851 z m -78.9927,6.4269 c 0.2423,-4.4335 0.2065,-4.3671 2.53,-4.6971 2.0982,-0.298 2.1108,-0.4 2.363,-19.2162 l 0.2535,-18.9167 -2.1285,-0.3021 c -1.7207,-0.2442 -2.1848,-0.9826 -2.4217,-3.8537 l -0.2931,-3.5517 15.8271,0.1154 c 18.1691,0.1324 20.779,0.8614 23.7194,6.6251 2.3294,4.5661 2.3204,9.3188 -0.023,12.2984 -1.0144,1.2895 -1.6472,2.612 -1.4063,2.9389 0.241,0.3268 0.1605,0.387 -0.1788,0.1337 -0.7687,-0.574 -3.1331,1.3169 -3.1331,2.5057 0,0.4829 0.3927,0.6353 0.8727,0.3387 0.48,-0.2967 1.1555,-0.082 1.5011,0.4773 0.3456,0.5592 1.2404,0.7818 1.9885,0.4948 0.748,-0.2871 1.1319,-0.1527 0.853,0.2986 -0.546,0.8833 1.7047,3.1754 2.4178,2.4623 0.2362,-0.2361 0.4742,0.5058 0.5289,1.6488 0.4971,10.3791 0.3799,11.8872 -1.1787,15.1717 -2.9262,6.1665 -7.2756,7.4643 -26.2633,7.8363 l -15.9987,0.3135 0.1706,-3.1217 z m 28.2991,-5.9062 c 1.5501,-0.389 2.1162,-1.0335 1.7488,-1.9909 -0.3108,-0.8099 -0.1433,-1.1685 0.3914,-0.838 1.248,0.7713 2.6588,-3.171 2.1848,-6.1053 -0.2083,-1.2891 -1.4394,-3.2877 -2.736,-4.4414 -1.9545,-1.7393 -3.3919,-2.0822 -8.4124,-2.0069 l -6.055,0.091 0,7.7099 c 0,4.2405 0.2142,7.9243 0.4762,8.1862 0.5946,0.5947 9.3186,0.1695 12.4022,-0.6045 z m -0.3486,-24.9398 c 1.7514,-1.3777 2.466,-2.8097 2.4558,-4.9218 -0.025,-5.2091 -2.8532,-7.1976 -10.2365,-7.1976 l -4.7491,0 0,7.0312 0,7.0313 5.0298,0 c 3.6689,0 5.6981,-0.5257 7.5,-1.9431 z m 81.2202,30.0681 c 0,-3.439 0.2138,-3.7592 2.5781,-3.861 1.4179,-0.061 2.8945,-0.061 3.2812,0 0.3867,0.061 0.7032,-8.3532 0.7032,-18.6984 l 0,-18.8094 -3.0428,0.2938 c -2.5323,0.2444 -3.1221,0.7507 -3.5156,3.0171 -0.4397,2.5324 -0.7688,2.7235 -4.6916,2.725 l -4.2188,0 -0.2738,-7.1781 -0.2738,-7.1781 21.5238,0 c 13.2094,0 21.6445,0.3547 21.8363,0.9182 0.1719,0.505 0.171,3.669 0,7.0312 l -0.3144,6.1128 -4.9138,0 -4.9139,0 0.4127,-2.8125 c 0.3937,-2.6823 0.256,-2.8125 -2.9748,-2.8125 l -3.3877,0 0,18.753 0,18.753 3.0469,-0.2374 c 2.9578,-0.2304 3.0553,-0.1209 3.3352,3.747 l 0.2882,3.9844 -12.2414,0 -12.2414,0 0,-3.75 z m 36.3983,0.3505 c 0.2718,-2.3276 0.9514,-3.5444 2.1555,-3.8593 1.6471,-0.4307 1.7587,-1.6684 1.7587,-19.5061 0,-18.2229 -0.081,-19.072 -1.875,-19.6414 -1.3953,-0.4428 -1.875,-1.4184 -1.875,-3.8131 l 0,-3.2181 10.3125,0 10.3125,0 0,3.1796 c 0,2.6097 -0.4201,3.2851 -2.3438,3.7679 l -2.3437,0.5882 0,19.2009 c 0,18.5759 0.061,19.2009 1.875,19.2009 1.5625,0 1.875,0.625 1.875,3.75 l 0,3.75 -10.1243,0 -10.1242,0 0.3968,-3.3995 z m 24.5392,-0.2489 c 0,-3.1097 0.346,-3.7352 2.3437,-4.2366 l 2.3438,-0.5882 0,-18.667 c 0,-18.6445 0,-18.6673 -2.1094,-18.9665 -1.6944,-0.2406 -2.1666,-0.9912 -2.4004,-3.8152 l -0.2909,-3.5156 10.4257,0 10.4256,0 -0.2909,3.5156 c -0.1612,1.9471 -0.8138,3.5679 -1.4629,3.6328 -0.6445,0.064 -1.5937,0.1699 -2.1093,0.2344 -0.5515,0.069 -0.9253,3.6884 -0.9079,8.7891 l 0.03,8.6718 2.3964,-2.8125 c 6.8809,-8.0758 7.8468,-9.4552 7.4128,-10.5861 -0.2683,-0.6992 -0.045,-0.9662 0.5172,-0.6187 0.544,0.3362 1.5612,-0.1692 2.2605,-1.1232 1.1087,-1.5126 1.0408,-1.8205 -0.5312,-2.4074 -1.3155,-0.4911 -1.8025,-1.5761 -1.8025,-4.0161 l 0,-3.3432 10.0782,0.2661 10.0781,0.2661 -0.1229,2.3438 c -0.2153,4.1065 -0.3093,4.2857 -2.3291,4.4379 -1.0907,0.082 -3.0946,1.5068 -4.4531,3.166 -1.3585,1.6592 -4.2174,5.1368 -6.3531,7.728 -3.3614,4.0782 -3.7506,5.0024 -2.8964,6.8772 0.5427,1.1912 1.341,2.1659 1.7738,2.1659 0.4329,0 0.787,0.4031 0.787,0.8958 0,0.4928 1.0818,2.49 2.404,4.4383 1.3221,1.9483 3.0559,4.9164 3.8529,6.5959 0.7969,1.6794 1.8197,2.8243 2.2728,2.5443 0.4531,-0.2801 0.5986,0.078 0.3232,0.7955 -1.0281,2.6792 4.8917,4.9495 8.5542,3.2808 1.5751,-0.7177 2.791,-2.7317 4.1934,-6.946 1.0863,-3.2644 1.6655,-6.4726 1.287,-7.1293 -0.3784,-0.6567 -0.3302,-0.8687 0.1071,-0.471 0.6592,0.5993 6.3106,-13.2842 7.3544,-18.0668 0.1687,-0.7735 0.6186,-2.1243 0.9995,-3.002 0.8786,-2.024 -0.05,-3.5605 -2.1531,-3.5605 -1.3124,0 -1.5565,-0.6416 -1.2483,-3.2813 l 0.3831,-3.2812 9.5697,0 9.5698,0 2.9265,8.6719 c 4.8955,14.5065 12.3099,35.3974 12.9041,36.3589 0.3082,0.4987 1.4959,0.9067 2.6392,0.9067 1.8599,0 2.0412,0.3949 1.7212,3.75 l -0.3576,3.75 -10.4484,-3e-4 -10.4484,-4e-4 -0.1817,-3.3149 c -0.1631,-2.9761 0.1004,-3.3713 2.5781,-3.8668 1.5179,-0.3036 2.7598,-0.6472 2.7598,-0.7637 0,-0.1164 -0.4631,-1.5402 -1.0292,-3.164 l -1.0292,-2.9524 -8.7228,0 -8.7229,0 -1.0291,2.9524 c -1.2216,3.5041 -1.2345,3.6425 -0.3261,3.4991 3.2037,-0.5059 3.9843,0.2463 3.9843,3.839 l 0,3.7279 -21.0689,0 -21.0689,0 0.274,-3.3382 c 0.2639,-3.2147 2.0607,-5.4405 3.6159,-4.4793 0.4114,0.2542 0.7479,0.1987 0.7479,-0.1235 0,-0.767 -1.9959,-4.5481 -2.7184,-5.1499 -0.3096,-0.2578 -1.5874,-2.4337 -2.8397,-4.8353 l -2.2769,-4.3666 -1.9082,2.4916 c -1.0494,1.3703 -2.4506,2.8289 -3.1137,3.2412 -0.6936,0.4314 -1.2056,2.5465 -1.2056,4.9809 0,3.8497 0.1902,4.2046 2.1094,3.9377 1.8669,-0.2595 2.1425,0.1647 2.3977,3.6911 l 0.2882,3.9844 -10.3664,0 -10.3664,0 0,-3.6484 z m 80.0315,-19.42 c -0.2715,-1.8246 -6.2309,-20.1066 -6.4723,-19.8558 -0.1419,0.1474 -1.622,4.4867 -3.2892,9.6429 -1.6672,5.1563 -3.1875,9.7969 -3.3783,10.3125 -0.2133,0.5763 2.2753,0.8991 6.4587,0.8379 3.7432,-0.055 6.7497,-0.4767 6.6811,-0.9375 z m -244.4848,-43.49412 c -115.35844,-0.37475 -144.37648,-0.70713 -144.6931,-1.65737 -0.21783,-0.65374 -0.97614,-1.76869 -1.68512,-2.47767 -0.70899,-0.70899 -1.4096,-1.85578 -1.55692,-2.54844 -0.24616,-1.15732 -5.27512,-9.3366 -7.16329,-11.65061 -0.44444,-0.54469 -1.35169,-2.63747 -2.01609,-4.65062 -0.6644,-2.01316 -2.22612,-5.68731 -3.47049,-8.1648 -1.24437,-2.47748 -2.41578,-5.30047 -2.60313,-6.27332 -0.18735,-0.97285 -0.93065,-2.97022 -1.65176,-4.43862 -0.72112,-1.46838 -1.8688,-4.56824 -2.55041,-6.88855 -0.6816,-2.32031 -1.820347,-6.05324 -2.530557,-8.29538 -0.7102,-2.24216 -1.49538,-5.70109 -1.74484,-7.68653 -0.24946,-1.98545 -0.86496,-4.69194 -1.36778,-6.01446 -4.04518,-10.63965 -5.15323,-50.9461 -1.90368,-69.24864 1.02276,-5.76055 2.27256,-11.89232 2.77732,-13.62615 0.50476,-1.73382 0.84323,-3.42132 0.75217,-3.75 -0.35841,-1.29352 2.54293,-12.31634 3.241807,-12.31634 0.40927,0 0.75339,-0.73828 0.76471,-1.64063 0.0113,-0.90234 0.85905,-3.48855 1.88384,-5.74712 1.67869,-3.69973 1.69986,-3.98114 0.21379,-2.84087 -0.99946,0.76687 -0.84561,0.3532 0.39041,-1.04975 1.12193,-1.27346 2.34322,-3.53688 2.71397,-5.02982 1.46434,-5.89664 18.48243,-36.3451 21.39906,-38.28683 0.56903,-0.37883 0.7309,-0.69523 0.35972,-0.70313 -0.37118,-0.007 0.3671,-1.54979 1.64062,-3.42643 1.27353,-1.87664 2.3155,-3.79998 2.3155,-4.27407 0,-0.4741 0.3915,-0.62004 0.87,-0.32432 0.47851,0.29574 1.13975,-0.31218 1.46943,-1.35092 0.32968,-1.03874 0.96444,-1.88861 1.41057,-1.88861 0.44613,0 1.08089,-0.84987 1.41057,-1.88861 0.32968,-1.03874 0.99092,-1.64666 1.46943,-1.35092 0.4785,0.29572 0.87,0.15653 0.87,-0.30932 0,-0.46586 1.02896,-2.04449 2.28658,-3.50808 1.25763,-1.46359 2.20685,-3.11123 2.10938,-3.66144 -0.0975,-0.55021 0.29812,-0.91225 0.87909,-0.80453 1.23763,0.22947 7.50207,-6.39209 7.12359,-7.52969 -0.14167,-0.42585 0.10618,-0.54946 0.55078,-0.27468 1.1358,0.70198 7.87317,-6.39671 6.99152,-7.36647 -0.39721,-0.4369 -0.19813,-0.49293 0.4424,-0.12449 0.70675,0.40653 2.82058,-0.91651 5.37683,-3.36531 5.84075,-5.5953 6.82425,-6.37896 8.00559,-6.37896 0.56782,0 0.77167,-0.42188 0.45299,-0.9375 -0.31868,-0.51563 0.0114,-0.9375 0.73367,-0.9375 1.21793,0 3.04988,-1.30206 8.57369,-6.09375 2.81421,-2.44121 5.19412,-4.00768 7.80201,-5.13528 1.16016,-0.50164 2.10938,-1.36928 2.10938,-1.92809 0,-0.55882 0.34272,-0.80422 0.7616,-0.54534 0.41888,0.25888 1.96106,-0.55997 3.42707,-1.81967 1.466,-1.25971 3.22784,-2.29037 3.91518,-2.29037 1.67766,0 5.04526,-2.95253 4.45569,-3.90649 -0.25819,-0.41774 0.17032,-0.51404 0.95224,-0.21399 0.78192,0.30005 2.69939,-0.36427 4.26104,-1.47627 1.56166,-1.112 3.32932,-1.71902 3.92813,-1.34893 0.67685,0.41831 0.83568,0.26339 0.41982,-0.40947 -0.36791,-0.59529 -0.21015,-1.08235 0.35057,-1.08235 0.56073,0 4.27704,-1.57848 8.25846,-3.50773 3.98142,-1.92925 7.66082,-3.52554 8.17645,-3.5473 0.51562,-0.0218 2.37341,-0.7636 4.12841,-1.64852 1.755,-0.88492 3.75891,-1.60895 4.45313,-1.60895 0.69422,0 1.26221,-0.42188 1.26221,-0.9375 0,-0.51563 0.79222,-0.9375 1.76051,-0.9375 0.96828,0 3.27504,-0.63281 5.12614,-1.40625 1.85109,-0.77344 4.43387,-1.40625 5.73949,-1.40625 1.30563,0 2.37386,-0.37492 2.37386,-0.83316 0,-0.45825 1.47656,-1.11017 3.28125,-1.44874 1.8047,-0.33856 3.2813,-0.91285 3.2813,-1.27621 0,-0.36335 1.1601,-0.72765 2.5781,-0.80955 4.5729,-0.26412 8.1648,-0.92235 10.0813,-1.84744 1.0295,-0.49691 3.2429,-0.81506 4.9187,-0.707 1.6758,0.10806 3.0469,-0.14798 3.0469,-0.56898 0,-0.421 2.0039,-0.9949 4.4531,-1.27532 2.4492,-0.28043 7.4062,-0.94193 11.0156,-1.47 22.6441,-3.31296 51.2274,-3.47924 72.1875,-0.41995 5.6719,0.82785 12.3164,1.70648 14.7656,1.9525 2.4492,0.24602 4.4532,0.80203 4.4532,1.23557 0,0.43354 1.7369,0.76428 3.8598,0.73499 2.1268,-0.0294 4.1843,0.47186 4.5826,1.11637 0.3976,0.6433 1.2174,0.86402 1.8218,0.49048 0.6044,-0.37354 2.2336,-0.2618 3.6205,0.2483 1.3868,0.5101 4.9473,1.46186 7.9121,2.11503 2.9649,0.65317 5.3907,1.54207 5.3907,1.97534 0,0.43327 1.0461,0.78777 2.3247,0.78777 2.2132,0 6.9787,1.54317 13.1581,4.26079 6.2292,2.73956 8.4726,3.53207 9.5246,3.36469 0.6056,-0.0964 1.3688,0.25786 1.6959,0.78716 0.3272,0.5293 1.4137,0.96236 2.4145,0.96236 1.0008,0 1.8197,0.31889 1.8197,0.70865 0,0.38975 1.371,1.2964 3.0468,2.01478 1.6758,0.71838 3.6154,1.75092 4.3102,2.29453 0.6948,0.54362 2.1531,1.12418 3.2406,1.29014 1.0874,0.16596 2.2065,0.60817 2.4867,0.98269 0.2802,0.37452 1.775,1.29789 3.3219,2.05192 1.5469,0.75403 3.9727,2.15318 5.3906,3.10922 1.418,0.95604 2.5782,1.48215 2.5782,1.16914 0,-0.31301 0.9233,0.29107 2.0517,1.34241 1.1285,1.05134 2.6051,1.91152 3.2813,1.91152 0.6762,0 1.2295,0.35059 1.2295,0.77908 0,0.4285 1.1601,1.3677 2.5781,2.08712 2.7701,1.40546 13.4385,9.25401 14.4264,10.61328 0.3291,0.45278 1.1728,0.49061 1.875,0.0841 0.7022,-0.40654 1.005,-0.43502 0.673,-0.0633 -0.8049,0.90116 3.4542,5.09549 5.5275,5.44347 0.9013,0.15125 2.0951,1.11876 2.6528,2.15001 0.5578,1.03125 1.507,1.76954 2.1094,1.64063 0.6024,-0.12891 1.0953,0.24349 1.0953,0.82753 0,0.58405 0.9492,1.86912 2.1093,2.85571 3.7718,3.20752 14.1938,13.62981 18.5157,18.51625 2.3203,2.62342 4.7246,4.57675 5.3428,4.34073 0.6364,-0.24291 0.9181,0.10792 0.6492,0.80852 -0.2612,0.68069 0.1822,1.8947 0.9853,2.69779 0.8031,0.80309 1.4602,2.09468 1.4602,2.8702 0,0.77553 0.7983,1.66343 1.7741,1.97315 0.9758,0.3097 2.2926,1.81469 2.9263,3.34442 0.6336,1.52972 1.5227,2.78132 1.9758,2.78132 0.4531,0 0.8237,0.45134 0.8237,1.00296 0,1.18007 5.5173,9.46628 6.9694,10.46707 0.5497,0.37882 0.6882,0.69523 0.3079,0.70312 -0.3803,0.007 0.7799,2.3144 2.5781,5.12557 1.7983,2.81117 3.2696,5.36897 3.2696,5.68401 0,1.0356 5.1126,11.22292 5.9267,11.80959 0.4378,0.31547 0.7209,0.73734 0.6292,0.9375 -0.092,0.20016 0.2598,1.41862 0.7812,2.70768 1.2383,3.06173 2.2605,5.86195 2.5666,7.03125 0.7384,2.82025 3.7852,10.38404 4.3557,10.81339 0.3661,0.27549 0.788,2.27877 0.9375,4.45175 0.1495,2.17297 0.4985,3.95149 0.7755,3.95224 0.277,7.6e-4 0.5664,0.83503 0.6432,1.85394 0.077,1.0189 0.8114,4.4752 1.6326,7.68067 2.8371,11.07417 4.2519,25.26344 4.2519,42.6438 0,17.10754 -0.8374,25.97975 -3.4126,36.15659 -0.7466,2.95068 -1.5295,6.53662 -1.7398,7.96875 -0.8376,5.70454 -1.8559,9.18489 -5.9736,20.41637 -1.3232,3.60938 -2.2921,6.94572 -2.153,7.41409 0.1391,0.46838 -0.086,1.10119 -0.4997,1.40625 -1.4404,1.06158 -4.0607,7.7215 -3.4358,8.73265 0.346,0.55988 0.205,0.75583 -0.3134,0.43544 -0.5184,-0.32039 -1.4969,1.09703 -2.1743,3.14982 -0.6775,2.05279 -1.7951,4.19984 -2.4836,4.77122 -0.6885,0.57137 -1.2517,1.41747 -1.2517,1.88021 0,0.46273 -1.0547,2.51207 -2.3438,4.55407 -1.2891,2.04201 -2.3437,4.143 -2.3437,4.66888 0,0.52587 -0.8592,1.81526 -1.9092,2.86531 -1.0501,1.05007 -1.6847,2.27257 -1.4102,2.71667 1.3735,2.22236 -61.8586,2.65505 -283.0089,1.93664 z m 37.6692,-32.08894 0.2471,-30.68269 38.5154,-0.25481 c 21.1834,-0.14014 38.8905,-0.0227 39.349,0.26109 0.4585,0.28374 0.945,14.20562 1.0812,30.9375 l 0.2476,30.4216 11.1025,0.31421 c 6.1063,0.17281 12.1181,0.0593 13.3594,-0.25223 l 2.2569,-0.56645 0,-30.45089 0,-30.45089 7.0312,0 7.0313,0 0.014,-48.04688 c 0.01,-27.86313 0.3793,-48.62401 0.8833,-49.42074 0.7492,-1.18456 1.8129,-1.07473 7.72,0.79703 16.5825,5.25445 31.3287,18.65846 37.3597,33.95922 2.4648,6.25325 4.6476,16.10594 4.6476,20.97809 0,3.84027 -0.1987,4.15343 -3.2799,5.17034 -7.4999,2.47518 -16.2825,15.55692 -15.578,23.20356 0.073,0.79228 1.892,1.17188 5.6157,1.17188 5.4342,0 5.5158,-0.0397 6.1015,-2.96858 0.7458,-3.72864 4.5785,-8.8257 7.8923,-10.49577 5.1316,-2.58618 9.8282,-2.62366 14.8554,-0.11852 7.9828,3.97799 11.1344,13.46889 7.2152,21.72797 -1.6374,3.45068 -6.6054,7.26852 -10.7781,8.28289 -2.1044,0.51157 -2.5474,1.20569 -2.8782,4.51019 -0.6497,6.48967 -0.071,7.47121 4.08,6.9145 16.3978,-2.19941 27.4232,-20.76285 21.5538,-36.29018 -2.4804,-6.56171 -6.4,-11.30523 -12.0553,-14.58952 -5.425,-3.15048 -5.8368,-3.71641 -5.855,-8.04458 -0.045,-10.62437 -5.7597,-27.65825 -13.1193,-39.10309 -10.2457,-15.93272 -27.8397,-27.94528 -47.1608,-32.19965 -5.8907,-1.29709 -7.3763,-2.30899 -7.1775,-4.88879 0.083,-1.07559 0.1041,-3.11578 0.047,-4.53375 l -0.1038,-2.57812 -81.0469,0 -81.047,0 -0.2811,5.35214 -0.2812,5.35215 -5.62501,1.13525 c -22.01301,4.44268 -42.48283,20.2627 -52.53419,40.60081 -3.57734,7.23844 -7.58733,21.98243 -8.47479,31.16023 -0.46869,4.84686 -0.75841,5.40439 -3.26199,6.27714 -3.34236,1.16516 -11.34193,8.99373 -13.54655,13.25698 -2.22592,4.30446 -2.86086,13.12463 -1.38706,19.26811 0.67254,2.80346 1.57729,5.09719 2.01056,5.09719 0.43327,0 0.78777,0.58194 0.78777,1.29321 0,2.2586 7.46796,9.09029 12.49603,11.43136 2.66625,1.24141 6.21881,2.26124 7.89459,2.26627 l 3.04688,0.009 0,-5.40495 0,-5.40495 -4.61491,-1.63907 c -17.52258,-6.22348 -12.88832,-30.96255 5.77299,-30.818 7.44991,0.0578 14.77942,6.11422 14.77942,12.2125 0,1.03472 0.49796,2.18907 1.10658,2.56522 1.10348,0.68198 10.23606,0.58411 10.93739,-0.11723 1.23083,-1.23083 -1.34079,-9.47807 -4.29419,-13.77155 -4.00136,-5.81696 -5.90919,-7.52667 -11.26541,-10.0956 -2.1914,-1.05104 -3.98437,-2.14441 -3.98437,-2.42972 0,-6.30964 4.03491,-21.6014 7.53544,-28.55833 4.92448,-9.78687 16.23423,-20.93437 25.7423,-25.373 4.69495,-2.19194 14.41342,-5.54054 16.07942,-5.54054 1.0241,0 1.2952,8.88836 1.4939,48.98437 l 0.2427,48.98438 7.0312,0.11497 7.0313,0.11499 0.2469,30.93539 0.2468,30.9354 13.3469,-0.11288 13.3469,-0.11287 0.2472,-30.68269 z m 29.0259,-58.6159 c -3.6217,-4.00194 -3.8934,-6.51273 -4.2333,-39.12211 -0.3315,-31.81003 -0.3289,-31.8607 1.7148,-33.51563 4.2578,-3.44771 13.6525,-0.87432 16.0546,4.39765 0.7938,1.74222 0.6721,7.21082 -0.4958,22.26777 -0.8514,10.97712 -1.5433,22.27872 -1.5376,25.11466 l 0.01,5.15625 3.7075,-4.21875 c 2.0391,-2.32031 3.7255,-4.53034 3.7475,-4.91116 0.042,-0.72923 2.3032,-3.65186 4.8118,-6.21946 0.8198,-0.83909 6.4711,-7.76926 12.5585,-15.40035 6.0874,-7.6311 12.2512,-14.48657 13.6973,-15.23437 8.268,-4.27557 15.8474,1.74646 15.8474,12.59117 0,3.87593 -1.9535,11.34109 -3.4466,13.17143 -0.1811,0.22193 -1.7514,-1.14916 -3.4896,-3.04688 -3.5849,-3.91379 -6.6586,-4.38753 -11.4869,-1.77046 -3.845,2.08415 -11.5661,9.36854 -16.9737,16.0136 -8.6259,10.59996 -20.4716,22.7902 -23.8628,24.55691 -4.264,2.22142 -4.7555,2.23401 -6.6236,0.16973 z m -33.4918,-21.79516 0,-16.875 5.3906,1.6e-4 5.3906,1.6e-4 0.2399,16.87484 0.24,16.87484 -5.6306,0 -5.6305,0 0,-16.875 z m 15.9375,0 0,-16.875 5.625,0 5.625,0 0,13.94531 c 0,7.66992 0.2636,15.26367 0.5859,16.875 l 0.5859,2.92969 -6.2109,0 -6.2109,0 0,-16.875 z m 33.756,16.17187 c 0.014,-1.6537 7.7947,-9.60937 9.3978,-9.60937 5.0656,0 9.8417,-5.11241 7.4586,-7.98384 -1.0278,-1.23847 -0.9888,-1.7291 0.2349,-2.95277 1.3317,-1.33168 1.6143,-1.24341 3.0539,0.95371 1.9248,2.9376 1.198,9.10493 -1.5268,12.95591 -2.6796,3.78708 -9.7093,7.33949 -14.5238,7.33949 -2.2553,0 -4.0979,-0.31641 -4.0946,-0.70313 z m -0.2994,-27.2388 c -3.0409,-3.17405 -3.2843,-7.20318 -0.7354,-12.17355 3.5035,-6.83163 5.7051,-8.04561 15.6032,-8.60358 4.8754,-0.27483 8.864,-0.19909 8.8637,0.16832 -4e-4,0.3674 -1.8292,2.89865 -4.0641,5.625 -3.5811,4.36861 -4.4228,4.92108 -7.0918,4.65452 -4.1433,-0.41381 -7.5947,1.99152 -7.5947,5.29283 0,1.43186 0.4778,3.08128 1.0619,3.66537 1.4572,1.4572 0.3163,4.00052 -1.7946,4.00052 -0.951,0 -2.8627,-1.18324 -4.2482,-2.62942 z m -48.2223,-12.94963 c -0.6504,-0.28566 -1.1718,-2.14857 -1.1718,-4.18656 l 0,-3.67188 6.5625,0 c 5.9988,0 8.0407,0.85076 5.625,2.34375 -0.5157,0.31867 -0.9375,1.37336 -0.9375,2.34375 0,0.97039 -0.3567,1.98476 -0.7926,2.25416 -1.3055,0.80687 -8.0253,1.47032 -9.2856,0.91678 z m 15.6274,-0.38219 c -0.7348,-0.41124 -1.3305,-2.14652 -1.3305,-3.87604 l 0,-3.13146 6.0938,0 6.0937,0 -0.3284,3.28125 c -0.1806,1.80469 -0.7936,3.57003 -1.3622,3.92299 -1.3898,0.86263 -7.508,0.73131 -9.1664,-0.19674 z m -20.1601,-11.56443 c -0.2791,-0.72727 -0.3754,-3.16354 -0.2139,-5.41395 l 0.2935,-4.09162 15.373,0 15.373,0 0.053,5.15625 0.053,5.15625 -15.2119,0.2577 c -12.4008,0.21007 -15.3058,0.0133 -15.7194,-1.06463 z m 92.4234,-99.51457 0,-42.66526 -45.2344,0.24338 -45.2344,0.24338 -0.2782,39.375 c -0.1531,21.65625 -0.028,40.74609 0.2768,42.42187 l 0.5551,3.04688 44.9575,0 44.9576,0 0,-42.66525 z m -72.6563,14.98196 c -2.0625,-0.74303 -3.8528,-1.35733 -3.9785,-1.36509 -0.1257,-0.008 -1.4968,-1.76492 -3.0469,-3.90478 -5.0586,-6.98322 -3.3114,-17.30926 3.7437,-22.12497 4.1008,-2.79919 12.2589,-2.91651 16.6496,-0.23943 6.4291,3.91985 9.0748,12.18448 6.0587,18.9264 -2.1776,4.86768 -4.5198,7.08292 -9.2864,8.7829 -4.4896,1.60118 -5.5084,1.59364 -10.1402,-0.075 z m 45.8389,0.54599 c -4.2831,-1.02308 -7.5987,-3.77622 -9.7315,-8.08056 -3.1908,-6.43962 -1.9996,-13.11444 3.248,-18.20065 2.8092,-2.72276 4.0709,-3.23629 8.7898,-3.57763 7.2194,-0.5222 11.5886,1.50197 14.6993,6.80987 4.0554,6.92013 2.7834,14.44363 -3.3087,19.56982 -2.4035,2.02241 -8.6222,4.59333 -10.317,4.26526 -0.2579,-0.0499 -1.7788,-0.40365 -3.3799,-0.78611 z m -76.5251,-27.47208 c 0.2848,-25.22828 0.8606,-23.64872 -7.5733,-20.775 -8.2128,2.7984 -14.7092,12.56722 -14.7092,22.11863 0,9.53706 11.7066,21.77881 20.1562,21.0776 1.8103,-0.15023 1.8837,-0.92392 2.1263,-22.42123 z m 125.4499,20.49787 c 8.7724,-4.08478 13.2142,-12.00099 12.685,-22.60724 -0.4548,-9.11496 -8.5657,-17.90701 -18.1842,-19.71146 l -3.4832,-0.65346 0,22.60434 0,22.60433 2.1093,-0.009 c 1.1602,-0.005 4.2531,-1.00734 6.8731,-2.22735 z M 153.4655,391.04107 c 0,-0.19467 0.73828,-0.93296 1.64062,-1.64063 1.48694,-1.16613 1.5201,-1.13297 0.35397,0.35396 -1.22472,1.56165 -1.99459,2.05827 -1.99459,1.28667 z"
         style="fill:#000000" />
    </g>
  </g>
</svg>
